<?xml version="1.0" encoding="utf-8"?>
<!-- Generator: Adobe Illustrator 25.2.1, SVG Export Plug-In . SVG Version: 6.00 Build 0)  -->
<svg version="1.1" id="Layer_1" xmlns="http://www.w3.org/2000/svg" xmlns:xlink="http://www.w3.org/1999/xlink" x="0px" y="0px"
	 viewBox="0 0 250 250" style="enable-background:new 0 0 250 250;" xml:space="preserve">
<style type="text/css">
	.st0{fill:#231F20;}
</style>
<path class="st0" d="M19.8,132.7c0,10.8-0.1,21.7,0.1,32.5c0,2.1-0.5,2.6-2.6,2.5c-4.4-0.2-8.7-0.1-13.1,0c-1.4,0-1.9-0.3-1.9-1.8
	c0-22.1,0-44.2,0-66.4c0-1.5,0.4-1.8,1.9-1.8c4.5,0.1,8.9,0.1,13.4,0c2.1-0.1,2.3,0.8,2.3,2.5C19.8,111,19.8,121.8,19.8,132.7z"/>
<path class="st0" d="M247.3,132.8c0,10.8-0.1,21.7,0,32.5c0,1.9-0.5,2.4-2.4,2.4c-4.4-0.1-8.7-0.1-13.1,0c-1.5,0-2-0.4-2-2
	c0.1-22,0.1-44.1,0-66.1c0-1.6,0.5-2,2-2c4.4,0.1,8.7,0.1,13.1,0c1.9-0.1,2.4,0.4,2.4,2.4C247.2,111,247.3,121.9,247.3,132.8z"/>
<path class="st0" d="M208.6,106.4c3.7,0,7.4,0,11.1,0c2,0,1.3,1.4,1.3,2.3c0,10,0,20,0,30c0,6-0.1,12,0,18c0,1.6-0.3,2.3-2.1,2.2
	c-3-0.2-6-0.1-9,0c-1,0-1.8,0-1.3-1.5c5-16.8,4.8-33.5-0.1-50.3C208.5,107,208.5,106.8,208.6,106.4z"/>
<path class="st0" d="M41,158.9c-3.7,0-7.4,0-11.1,0c-2,0-1.3-1.4-1.3-2.3c0-10.9,0-21.8,0-32.8c0-5.2,0-10.4,0-15.6
	c0-1.4,0.3-1.9,1.8-1.9c3.1,0.1,6.2,0.1,9.3,0c1.1,0,1.7,0,1.3,1.5c-4.9,16.8-4.8,33.5,0.2,50.3C41.1,158.4,41,158.6,41,158.9z"/>
<path class="st0" d="M54.8,132.4c0-38.3,31.5-69.8,69.8-69.7c38.9,0,70.2,31.4,70.2,70.2c0,38.4-31.6,69.8-70.1,69.7
	C86,202.6,54.8,171.2,54.8,132.4z M63.6,132.6c0,33.7,27.3,61.3,60.8,61.4c34.1,0.1,61.6-27.2,61.7-61.3
	c0.1-33.6-27.5-61.2-61.2-61.2C91.1,71.4,63.6,98.8,63.6,132.6z"/>
<path class="st0" d="M124.8,128.3c-12.7,0-25.3,0-38,0c-4.3,0-5.7-1.4-5.8-5.7c0-5,0-10,0-15c0-4,1.5-5.5,5.4-5.5
	c25.6,0,51.2,0,76.7,0c3.8,0,5.3,1.6,5.4,5.3c0,5.2,0,10.4,0,15.6c0,3.9-1.6,5.4-5.5,5.4C150.3,128.3,137.5,128.3,124.8,128.3z
	 M124.7,119.6c9.6,0,19.1,0,28.7,0c6.5,0,6.4,0,6.5-6.4c0-2.1-0.6-2.5-2.6-2.5c-20.4,0.1-40.8,0-61.2,0c-6.4,0-6.3,0-6.4,6.5
	c0,2,0.6,2.4,2.4,2.4C103,119.6,113.8,119.6,124.7,119.6z"/>
<path class="st0" d="M146.6,137.1c4.4,0,4.4,0,4.4,4.4c0,0.5,0,1.1,0,1.6c-0.2,2.2,0.2,3.7,2.6,4.9c5.2,2.8,7.3,8.9,5.7,14.6
	c-1.6,5.7-6.8,9.5-12.8,9.5c-5.8-0.1-10.9-4-12.4-9.7c-1.5-5.7,0.7-11.8,5.9-14.5c2.1-1.1,2.7-2.4,2.4-4.4c-0.1-0.6,0-1.3,0-1.9
	C142.3,137.1,142.3,137.1,146.6,137.1z M146.6,163.2c2.3,0,4.4-2,4.4-4.3c0-2.3-2.1-4.4-4.4-4.3c-2.2,0-4.2,2-4.2,4.2
	C142.3,161.1,144.3,163.2,146.6,163.2z"/>
<path class="st0" d="M111.7,89.1c0,4.2,0,4.2-4.3,4.2c-4.5,0-4.5,0-4.5-4.5c0-4.2,0-4.2,4.3-4.2C111.7,84.6,111.7,84.6,111.7,89.1z"
	/>
<path class="st0" d="M129.2,89c0,4.3,0,4.3-5.2,4.3c-3.5,0-3.5,0-3.5-5.5c0-3.3,0-3.3,5.5-3.2C129.2,84.6,129.2,84.6,129.2,89z"/>
<path class="st0" d="M137.9,88.8c0-4.2,0-4.2,4.3-4.2c4.5,0,4.5,0,4.5,4.6c0,4.2,0,4.2-4.3,4.2C137.9,93.3,137.9,93.3,137.9,88.8z"
	/>
<path class="st0" d="M89.8,141.5c0,4.4,0,4.4-4.4,4.4c-4.4,0-4.4,0-4.4-4.4c0-4.4,0-4.4,4.4-4.4C89.8,137.1,89.8,137.1,89.8,141.5z"
	/>
<path class="st0" d="M98.6,141.2c0-4.2,0-4.2,4.3-4.2c4.4,0,4.4,0,4.4,4.6c0,4.2,0,4.2-4.3,4.2C98.6,145.8,98.6,145.8,98.6,141.2z"
	/>
<path class="st0" d="M120.5,137.1c4.3,0,4.3,0,4.3,4.2c0,4.5,0,4.5-4.5,4.5c-4.3,0-4.3,0-4.3-4.2
	C116.1,137.1,116.1,137.1,120.5,137.1z"/>
<path class="st0" d="M85.5,154.6c4.3,0,4.3,0,4.3,5.2c0,3.5,0,3.5-5.5,3.5c-3.3,0-3.3,0-3.2-5.5C81.1,154.6,81.1,154.6,85.5,154.6z"
	/>
<path class="st0" d="M102.7,163.3c-4.2,0-4.2,0-4.2-4.3c0-4.4,0-4.4,4.6-4.4c4.2,0,4.2,0,4.2,4.3
	C107.3,163.3,107.3,163.3,102.7,163.3z"/>
<path class="st0" d="M124.8,159c0,4.4,0,4.4-4.4,4.4c-4.4,0-4.4,0-4.4-4.4c0-4.4,0-4.4,4.4-4.4C124.8,154.6,124.8,154.6,124.8,159z"
	/>
</svg>
