<?xml version="1.0" encoding="utf-8"?>
<!-- Generator: Adobe Illustrator 25.2.1, SVG Export Plug-In . SVG Version: 6.00 Build 0)  -->
<svg version="1.1" id="Layer_1" xmlns="http://www.w3.org/2000/svg" xmlns:xlink="http://www.w3.org/1999/xlink" x="0px" y="0px"
	 viewBox="0 0 1220 360" style="enable-background:new 0 0 1220 360;" xml:space="preserve">
<style type="text/css">
	.st0{fill:#6C6F70;}
	.st1{fill:#38BDF8;}
	.st2{fill:#68CDF4;}
</style>
<path class="st0" d="M264.1,163c-7.7-0.9-15.4-1.9-23.1-2.8c-7.8-0.9-15.6-1.4-23.3-2.5c-4.4-0.6-5.9,0.8-6.2,5.1
	c-0.3,5-1.3,9.9-1.8,14.9c-0.3,2.6-1.2,4.1-4.1,3.2c-4-1.2-5.8,0.6-6.6,4.4c-0.4,1.8-1.1,3.6-2.1,5c-2.6,3.8-3.2,7.1,1.3,10
	c1.8,1.2,1.5,2.5,0.2,4.1c-3.9,4.7-7.9,9.5-11.6,14.4c-1.8,2.4-3.5,2.4-5.1,0.2c-2.5-3.5-4.9-2.9-7.6-0.2c-1.2,1.2-2.6,2.2-4.1,2.8
	c-4.1,1.9-6.5,4.4-4.2,9.2c1.1,2.3-0.5,3.2-2.5,3.8c-5.4,1.7-10.8,3.3-16.2,5.2c-2.6,0.9-4.2,0.5-4.5-2.4c-0.5-4.5-3-5.8-7.2-4.9
	c-1.6,0.3-3.3-0.1-5-0.1c-3.6,0-6.7,0.6-7.1,5.1c-0.2,2.7-1.7,3.1-4.1,2.2c-5.2-1.8-10.4-3.5-15.7-4.9c-3.1-0.8-4.3-2.4-2.9-5.3
	c1.7-3.8,0.7-6.3-3.1-7.9c-1.4-0.6-2.7-1.5-3.7-2.6c-3.4-3.7-6.7-4.4-10,0.1c-1.2,1.6-2.3,1.4-3.6-0.2c-4-5.1-8-10.2-12.2-15.2
	c-1.9-2.2-1-3.7,0.9-4.9c3.7-2.4,4.1-5.2,1.7-8.7c-0.9-1.4-1.5-3-1.9-4.6c-1.1-4.4-3-7.2-8.2-5.4c-2.6,0.9-3-1-3.3-3
	c-0.6-5.1-1.5-10.2-2-15.3c-0.3-3.4-1.6-4.6-5-4.2c-15.7,1.9-31.4,3.6-47.1,5.3c-0.6,0.1-1.3,0.6-1.8-0.1
	C31.1,140.8,215.8,140.2,264.1,163z M96.4,154.8c-4.8,0.3-8.6,0.5-12.4,0.8c-1.2,0.1-2.6,0-2.5,1.7c0.4,3.8,1,7.6,1.6,11.4
	c0.2,1.2,1.1,1.7,2.2,1.4c6.4-1.5,4.6,4.7,6.7,7.2c1.7,1.9,1.4,3.9-0.7,5.6c-1.6,1.3-1.6,2.7-0.2,4.2c2.3,2.7,4.4,5.4,6.6,8.2
	c1,1.3,2,1.5,3.3,0.4c1.3-1.2,2.8-3.1,4.5-0.9c2.2,2.8,8.5,2.5,6.6,8.4c-0.7,2.2,0.2,3.1,2.1,3.6c3,0.9,6,1.9,9,2.9
	c1.6,0.5,2.8,0.4,3.5-1.6c1.8-5,6.2-2.4,9.5-3.1c2.7-0.6,3.3,1.5,3.8,3.5c0.3,1,0.6,2.1,1.9,1.7c4-1.2,7.9-2.4,11.9-3.8
	c1.2-0.4,1.2-1.4,0.8-2.5c-2-6,4.3-5.6,6.5-8.4c1.9-2.3,3.4-0.8,4.9,0.7c0.8,0.8,1.8,0.9,2.5,0c2.6-3.2,5.2-6.5,7.8-9.7
	c0.6-0.7,0.8-1.5,0-2.2c-5.7-4.9,1.1-8.5,1.4-12.7c0.1-1.1,1.4-1.3,2.5-1c3,0.8,3.8-0.7,3.9-3.3c0.1-2.6,0.6-5.3,1-7.9
	c0.4-2.5-0.3-3.6-3.1-3.7c-5-0.1-10.1,0.3-14.9-0.9c-7.2-1.7-4.4,7.2-9.3,7.8c-0.9,0.1-1.8,2.6-1.6,4.4c0.6,5.4-1.3,7.6-6.5,8
	c-2,0.2-3.7,1.4-4.5,3.4c-1.8,4.3-5.2,5.3-9.2,2.6c-1.7-1.2-3.5-1-5.2-0.2c-4.9,2.6-7.1,1.9-9.7-3c-0.9-1.8-2.4-3.4-5.2-2.9
	c-2.3,0.5-7.4-4.3-6.4-6.2c3.9-6.9-6.6-7.7-5.4-13.3c-0.8-0.1-1.6-0.4-2.4-0.4C99.8,154.8,97.6,154.8,96.4,154.8z"/>
<path class="st1" d="M182.2,141.2c-37.1-2.6-74.1-2.5-111.1,1.4c-7,0.7-7,0.6-4.7-6.2c5.7-16.6,15.2-31,25.5-44.9
	c11.1-15,22.7-29.6,30.5-46.7c5.6-12.3,9-25.3,11.2-38.7c1.8,8.1,3.2,16.2,5.6,24.1c5.8,18.8,16.3,34.9,27.9,50.4
	c10.2,13.6,20.6,27,28.1,42.4c2.4,4.9,4.5,10,6.2,15.2c1.6,5.1,1.6,5.2-3.8,4.7c-0.8-0.1-1.6-0.3-2.4-0.5
	c-4.2-13.2-11.3-24.8-19.2-36c-12.9-18.2-27.3-35.3-37-55.6c-0.1-0.2-0.5-0.1-1.4-0.3c1,2.7,1.8,5.2,2.7,7.7
	c6.6,17,16.7,32.2,25.8,47.9C172.6,117.2,178.6,128.7,182.2,141.2z"/>
<path class="st2" d="M182.2,141.2c-3.7-12.6-9.6-24.1-16.2-35.3C157,90.2,146.9,75,140.3,58c-0.9-2.4-1.7-4.9-2.7-7.7
	c0.8,0.2,1.3,0.1,1.4,0.3c9.7,20.3,24.1,37.5,37,55.6c7.9,11.2,15,22.9,19.2,36C190.9,141.9,186.6,141.6,182.2,141.2z"/>
<g>
	<path d="M1215,236.6c0-1.5,0-3.1,0-4.6c-5.3,1.3-10.6,2.7-15.8,4.6c0,6.5,0.1,13,0.1,19.5c0,4.9-3.1,8-8.1,8c-17.6,0-35.1,0-52.7,0
		c-0.8,0-1.6-0.1-2.6-0.1c0.4-2.5-0.7-3.1-2.8-3c-3.1,0.2-6.3,0.1-9.4,0c-2.3-0.1-4.3-0.1-4.1,3h-149c0.4-2.7-1-3.1-3.1-3
		c-3.2,0.1-6.4,0.2-9.6,0c-2.3-0.1-3.9,0.2-3.4,3H799.4c0.4-2.6-0.8-3.1-2.9-3c-3.2,0.2-6.4,0.2-9.6,0c-2.3-0.1-3.9,0.2-3.6,3.1
		h-11.4c0.5-2.9-1-3.2-3.1-3.1c-1.8,0.1-3.6,0-5.4,0c-0.5-5.2-0.5-5.2,2.8-9.4c1.7-2.2,5.5-2.4,7.5-0.5c1.6,1.5,3.3,2.2,5.5,1.5
		c2.4-0.8,3.6-2.6,3.7-4.9c0.1-2.2-1-4.1-3.2-5c-2.2-0.9-4.3-0.5-6,1.2c-2,2-6,1.7-7.8-0.4c-2.9-3.5-7.6-3.5-10.8,0.1
		c-1.8,2-5.7,2.2-7.6,0.3c-2.2-2.1-5.4-2.2-7.5-0.2c-2,1.9-2.2,5.2-0.3,7.3c1.9,2.2,5.3,2.6,7.4,0.5c1.4-1.4,2.8-1.5,4.4-1.6
		c2-0.2,3.1,0.6,4.1,2.2c0.4,0.6,1.2,0.9,1.7,1.4c0.4,0.4,0.8,0.9,0.8,1.4c0.1,2,0,4,0,6.1c-1.9,0-3.5,0.1-5.1,0
		c-2.3-0.2-4,0.1-3.8,3.1c-1.8,0-3.4,0-5,0c-17.2,0-34.5,0-51.7,0c-10.3,0-17.8,7.2-18.2,17.5c-0.2,4.7-0.1,9.5-0.1,14.2
		c0,0.5,0.1,0.9,0.2,1.4h15.7c0-2.9,0-5.6,0-8.3c0-6.2,2.5-8.7,8.8-8.7c27.1,0,54.2,0,81.3,0c0.8,0,1.7,0,2.4,0
		c0.7,3.1,0.7,3.1,3.8,3.1c3.2,0,6.4-0.1,9.6,0c2.1,0.1,3.3-0.4,2.9-3h155.1c-0.3,2.4,0.8,3.1,2.9,3c3.2-0.2,6.4-0.2,9.6,0
		c2.3,0.1,4-0.2,3.8-3h148.8c0.5,3,0.5,3,3.4,3c3,0,6.1-0.1,9.1,0c2.3,0.1,4.3,0.2,4-3.1c1.1,0,1.9,0,2.7,0c19.8,0,39.5-0.1,59.3,0
		c10.7,0.1,17.4-8.3,17-17C1214.8,254.3,1215,245.4,1215,236.6z"/>
	<path d="M680.8,301.9c4.1,5.6,7,11.3,8.2,17.5c0.4,2.1,0.4,4.4,0,6.5c-0.7,4.6-3.9,7.2-8.1,7.1c-4-0.2-7.3-3.4-7.4-7.9
		c0-3.2,0.2-6.6,1.3-9.7C676.5,310.8,678.8,306.4,680.8,301.9z"/>
</g>
<g>
	<path d="M379.7,166v13.2c0,25.8-5.5,51-46.5,51c-22.2,0-44.2-7.8-44.2-47.5V105c0-35.5,19.5-46.2,45.2-46.2
		c40.8,0,45.5,27.2,45.5,46v15.5h-40.2v-19.8c0-6.8-0.5-10.8-5.2-10.8c-4.5,0-5.5,3.2-5.5,10.8v87.2c0,8.2,1,11.2,5,11.2
		c4.5,0,5.8-3,5.8-12v-21H379.7z"/>
	<path d="M485,104.8v79.5c0,33.8-18.5,46-47.5,46c-28,0-44.5-13.2-44.5-46v-81.5c0-30.8,19-44,45.5-44S485,72.3,485,104.8z
		 M432.7,100v89c0,6.2,1.8,10,6,10c3.8,0,6-3.2,6-10V99.8c0-7.5-1.8-9.8-6.2-9.8C434.7,90,432.7,92.5,432.7,100z"/>
	<path d="M536,173.3v13.5c0,10,1.8,12.5,5.5,12.5c3.5,0,4.8-3.5,4.8-9.8c0-12.5-1.5-16.2-16.8-30.5c-20.2-19-29.7-28.8-29.7-53
		c0-26.8,10-47.2,42.2-47.2c35.5,0,41.8,21.8,41.8,44.2v10.2h-35v-12.8c0-8.5-1.5-10.8-5.2-10.8c-3,0-4.8,2.5-4.8,10
		c0,8.8,1.5,12.2,14,23.5c22.8,20.2,33.5,30.7,33.5,57.2c0,30.5-9.2,49.8-44.5,49.8c-31.5,0-43.5-17.2-43.5-47v-10H536z"/>
</g>
<path d="M621,219.5V273h-15.9V140c0-17.3,0-28.5-0.2-36.6H620c0.3,2.7,0.7,7.6,0.7,13.8c3-8.6,9.8-15.8,22.9-15.8
	c17.3,0,25.7,11.5,25.7,36.6v54.2c0,27.8-11.1,39.9-27.4,39.9C628.9,232.2,623.6,225.4,621,219.5z M653.2,192.6v-54.3
	c0-16.2-6-22.3-14.4-22.3c-14.4,0-18,12.5-18,29.5v40.9c0,15.2,2,31.1,16.8,31.1C648.7,217.5,653.2,208.6,653.2,192.6z"/>
<path d="M689.6,230.2V55.7h15.9v174.4H689.6z"/>
<path d="M791.6,196.6c0,15.9,0,27.7,0.2,33.6h-15.1c-0.3-2.3-0.7-8.8-0.7-13.5c-3.8,11.6-11.6,15.5-22.6,15.5
	c-10.1,0-24.5-3.7-24.5-32.2v-96.5h15.9v92.4c0,15.8,4.2,21.9,14.1,21.9c9.1,0,16.8-5.4,16.8-31.5v-82.8h15.9V196.6z"/>
<path d="M815.6,139.8c0-22.5,0-30.2-0.2-36.5h15.1c0.6,3.7,0.6,7.9,0.7,12.1c3.6-8.6,10.5-14.1,21.5-14.1c9.6,0,16.8,3.9,19.5,14.9
	c3.8-8,10.4-14.9,23.2-14.9c12.1,0,23.6,5.2,23.6,29.6v99.2h-15.9v-95.8c0-10.2-1.9-18.3-12.4-18.3c-12.6,0-15.4,11.5-15.4,25.4
	v88.7h-16v-94.6c0-14.2-3.5-19.5-12.7-19.5c-12.2,0-15.1,11.8-15.1,26.8v87.3h-15.9V139.8z"/>
<path d="M942.9,55.7h15.9v59.5c3.4-7.9,10.3-13.9,22.7-13.9c18,0,25.6,14.7,25.6,36.4v50.1c0,25.2-5.5,44-28.3,44
	c-11.8,0-18.1-5.9-21-14.1c-0.1,5.2-0.2,8.5-0.7,12.4h-14.4c0.3-6.8,0.2-18.2,0.2-33.7V55.7z M991,190.5v-50.4
	c0-15.2-3.8-24.1-14.7-24.1c-15.4,0-17.7,15-17.7,33.2v38.2c0,20.4,4.9,29.7,16.9,29.7C985.7,217.2,991,208.8,991,190.5z"/>
<path d="M1027.1,103.4h15.9v126.8h-15.9V103.4z M1027.2,55.7h15.9v25.4h-15.9V55.7z"/>
<path d="M1067.1,141.9c0-25.4,0-32.1-0.2-38.5h15.1c0.3,2.8,0.7,7.1,0.7,13c3.8-9.7,11.5-15,23.2-15c13.5,0,24.7,7.6,24.7,30.7v98.1
	h-15.9v-94.9c0-12.5-4.2-19.2-13.9-19.2c-11,0-17.8,5.4-17.8,31v83.1h-15.9V141.9z"/>
<path d="M1177.5,229.1c11.4,0,18.2-4.6,21.6-13.6v16.9c0,1,0,2,0,2.9h15.8c0.1-2.2,0.1-4.4,0.1-6.7v-91.4c0-15.3,0.2-27,0.5-33.8
	h-13.8c-0.3,2.8-0.9,7.5-0.9,11c-1.8-6.3-7.8-13-20.7-13c-18.7,0-29.1,14-29.1,37.5v51.6C1151,215.9,1159,229.1,1177.5,229.1z
	 M1167,139.7c0-14.9,4.7-23.6,16.2-23.6c14.3,0,16,12.2,16,27.7v37.5c0,17.4-2.4,33.3-17.7,33.3c-9.9,0-14.5-8.3-14.5-25.4V139.7z"
	/>
<g>
	<g>
		<path d="M746.5,329.1v1.5c0,5.9-1.1,12-9,12c-7.7,0-9-5.7-9-12.3v-23.2c0-7.3,3.1-11.2,9-11.2c7.4,0,8.7,5.4,8.7,11.2v1.7h-4.4v-2
			c0-3.7-0.5-7-4.4-7c-3.6,0-4.5,2.9-4.5,7.2v23.5c0,4.9,1.1,8.1,4.7,8.1c3.8,0,4.4-3.3,4.4-7.8v-1.8H746.5z"/>
		<path d="M772.3,307.6v23.3c0,7.8-3.2,11.8-9.7,11.8c-7,0-9.3-4.5-9.3-11.7v-23.3c0-7.5,3.3-11.6,9.6-11.6
			C769.6,296,772.3,300.8,772.3,307.6z M757.7,307.5v23.7c0,5.4,2,7.5,5.1,7.5c3.3,0,5.1-2,5.1-7.8v-23.5c0-5.1-1.8-7.5-5.2-7.5
			C759.3,300,757.7,302.3,757.7,307.5z"/>
		<path d="M781.1,296.6h4.3v41.5h11.4l-0.5,3.9h-15.2V296.6z"/>
		<path d="M821.1,307.6v23.3c0,7.8-3.2,11.8-9.7,11.8c-7,0-9.3-4.5-9.3-11.7v-23.3c0-7.5,3.3-11.6,9.6-11.6
			C818.3,296,821.1,300.8,821.1,307.6z M806.4,307.5v23.7c0,5.4,2,7.5,5.1,7.5c3.3,0,5.1-2,5.1-7.8v-23.5c0-5.1-1.8-7.5-5.2-7.5
			C808.1,300,806.4,302.3,806.4,307.5z"/>
		<path d="M834.2,320.6V342h-4.3v-45.4h7.5c6.8,0,10,3,10,10.3v2.2c0,6-2,8.7-4.6,9.6c2.9,1,4.2,3.3,4.2,9.3c0,3.9-0.1,11.1,0.5,14
			h-4.2c-0.6-2.9-0.5-10.5-0.5-13.7c0-6-0.9-7.7-5.5-7.7H834.2z M834.2,316.9h3.3c4.5,0,5.5-2.8,5.5-7.6v-2.1c0-4.3-1.2-6.9-5.9-6.9
			h-2.9V316.9z"/>
		<path d="M859.9,327l-2.3,15h-4.4l7.5-45.4h6.2l7.8,45.4h-4.5l-2.5-15H859.9z M867.1,323c-1.7-10.5-2.9-18.4-3.3-22.5h-0.2
			c-0.2,3.5-1.8,13.8-3.1,22.5H867.1z"/>
		<path d="M881.9,296.6h7.9c9.9,0,10.8,6.3,10.8,13.2v18.1c0,7-1,14.1-11.2,14.1h-7.5V296.6z M886.2,338.3h2.9
			c5.7,0,7.1-3.1,7.1-9.4v-19.6c0-5.5-1-8.9-7.1-8.9h-2.9V338.3z"/>
		<path d="M927.4,307.6v23.3c0,7.8-3.2,11.8-9.7,11.8c-7,0-9.3-4.5-9.3-11.7v-23.3c0-7.5,3.3-11.6,9.6-11.6
			C924.6,296,927.4,300.8,927.4,307.6z M912.7,307.5v23.7c0,5.4,2,7.5,5.1,7.5c3.3,0,5.1-2,5.1-7.8v-23.5c0-5.1-1.8-7.5-5.2-7.5
			C914.4,300,912.7,302.3,912.7,307.5z"/>
		<path d="M950.2,329.4v2.6c0,4.5,1.6,6.9,4.9,6.9c3.4,0,4.8-2.3,4.8-7.8c0-5.4-1.2-7.6-6-11.3c-4.9-3.8-7.3-6-7.3-12.7
			c0-5.7,1.7-11.1,8.6-11.1c6.4,0,8.3,4.2,8.3,10.2v2h-4.3v-1.9c0-3.9-0.8-6.5-4.1-6.5c-3.3,0-4.2,2.9-4.2,6.6
			c0,4.5,0.9,6.1,5.1,9.3c6.2,4.7,8.2,7.3,8.2,14.8c0,6.4-1.7,12.1-9.2,12.1c-7.1,0-9.2-4.7-9.2-10.7v-2.6H950.2z"/>
		<path d="M972.1,296.6h7.9c6.6,0,9.7,3.4,9.7,10.6v2.8c0,6.7-1.9,11.7-10.1,11.7h-3.2V342h-4.3V296.6z M976.4,318h2.9
			c5.3,0,6.1-3.3,6.1-8.1v-2.5c0-3.8-0.9-7.1-5.7-7.1h-3.3V318z"/>
		<path d="M1001.9,320.6V342h-4.3v-45.4h7.5c6.8,0,10,3,10,10.3v2.2c0,6-2,8.7-4.6,9.6c2.9,1,4.2,3.3,4.2,9.3c0,3.9-0.1,11.1,0.5,14
			h-4.2c-0.6-2.9-0.5-10.5-0.5-13.7c0-6-0.9-7.7-5.5-7.7H1001.9z M1001.9,316.9h3.3c4.5,0,5.5-2.8,5.5-7.6v-2.1
			c0-4.3-1.2-6.9-5.9-6.9h-2.9V316.9z"/>
		<path d="M1028,296.6V342h-4.3v-45.4H1028z"/>
		<path d="M1037.8,342v-45.4h5.2c2.6,8.9,9.1,33,9.9,37h0.1c-0.3-6.2-0.3-12.6-0.3-20v-17h4.1V342h-5c-2.6-9.3-9.3-34.3-10.2-38.3
			h-0.1c0.3,5.5,0.4,13,0.4,21.2V342H1037.8z"/>
		<path d="M1084.2,342h-3.5c-0.1-0.7-0.3-3-0.3-4.1c-1.1,3.5-3.7,4.6-6.6,4.6c-6.2,0-8.2-4.6-8.2-11.7v-23c0-7.5,3-11.8,9.5-11.8
			c7.5,0,9.1,5.3,9.1,11.2v1.1h-4.3v-1.1c0-3.4-0.4-7.2-4.8-7.2c-3.3,0-5,2.1-5,7.6V331c0,4.7,1.2,7.8,4.7,7.8
			c4.4,0,5.1-4.2,5.1-10.2v-7.4h-5.3v-3.8h9.7V342z"/>
		<path d="M1095.3,329.4v2.6c0,4.5,1.6,6.9,4.9,6.9c3.4,0,4.8-2.3,4.8-7.8c0-5.4-1.2-7.6-6-11.3c-4.9-3.8-7.3-6-7.3-12.7
			c0-5.7,1.7-11.1,8.6-11.1c6.4,0,8.3,4.2,8.3,10.2v2h-4.3v-1.9c0-3.9-0.8-6.5-4.1-6.5c-3.3,0-4.2,2.9-4.2,6.6
			c0,4.5,0.9,6.1,5.1,9.3c6.2,4.7,8.2,7.3,8.2,14.8c0,6.4-1.7,12.1-9.2,12.1c-7.1,0-9.2-4.7-9.2-10.7v-2.6H1095.3z"/>
		<path d="M1113.9,348.8c1.9-4.8,3.2-10.8,3.4-16h4c-0.1,5.4-1.9,12-4,16H1113.9z"/>
		<path d="M1158.2,329.1v1.5c0,5.9-1.1,12-9,12c-7.7,0-9-5.7-9-12.3v-23.2c0-7.3,3.1-11.2,9-11.2c7.4,0,8.7,5.4,8.7,11.2v1.7h-4.4
			v-2c0-3.7-0.5-7-4.4-7c-3.6,0-4.5,2.9-4.5,7.2v23.5c0,4.9,1.1,8.1,4.7,8.1c3.8,0,4.4-3.3,4.4-7.8v-1.8H1158.2z"/>
		<path d="M1184,307.6v23.3c0,7.8-3.2,11.8-9.7,11.8c-7,0-9.3-4.5-9.3-11.7v-23.3c0-7.5,3.3-11.6,9.6-11.6
			C1181.2,296,1184,300.8,1184,307.6z M1169.3,307.5v23.7c0,5.4,2,7.5,5.1,7.5c3.3,0,5.1-2,5.1-7.8v-23.5c0-5.1-1.8-7.5-5.2-7.5
			C1171,300,1169.3,302.3,1169.3,307.5z"/>
	</g>
</g>
</svg>
